<svg width="30" height="30" viewBox="0 0 30 30" fill="none" xmlns="http://www.w3.org/2000/svg">
<circle cx="15" cy="15" r="15" fill="#70A178"/>
<path d="M7.69236 14.4639V18.3101C7.69236 19.1081 8.33659 19.7524 9.13467 19.7524C9.93275 19.7524 10.577 19.1081 10.577 18.3101V14.4639C10.577 13.6658 9.93275 13.0216 9.13467 13.0216C8.33659 13.0216 7.69236 13.6658 7.69236 14.4639ZM13.4616 14.4639V18.3101C13.4616 19.1081 14.1058 19.7524 14.9039 19.7524C15.702 19.7524 16.3462 19.1081 16.3462 18.3101V14.4639C16.3462 13.6658 15.702 13.0216 14.9039 13.0216C14.1058 13.0216 13.4616 13.6658 13.4616 14.4639ZM7.21159 24.5601H22.5962C23.3943 24.5601 24.0385 23.9158 24.0385 23.1178C24.0385 22.3197 23.3943 21.6755 22.5962 21.6755H7.21159C6.41352 21.6755 5.76929 22.3197 5.76929 23.1178C5.76929 23.9158 6.41352 24.5601 7.21159 24.5601ZM19.2308 14.4639V18.3101C19.2308 19.1081 19.8751 19.7524 20.6731 19.7524C21.4712 19.7524 22.1154 19.1081 22.1154 18.3101V14.4639C22.1154 13.6658 21.4712 13.0216 20.6731 13.0216C19.8751 13.0216 19.2308 13.6658 19.2308 14.4639ZM14.0097 4.83891L6.41352 8.83891C6.01929 9.04084 5.76929 9.4543 5.76929 9.89661C5.76929 10.5601 6.30775 11.0985 6.97121 11.0985H22.8462C23.5001 11.0985 24.0385 10.5601 24.0385 9.89661C24.0385 9.4543 23.7885 9.04084 23.3943 8.83891L15.7981 4.83891C15.2404 4.54084 14.5674 4.54084 14.0097 4.83891Z" fill="white"/>
</svg>
