<svg width="25" height="27" viewBox="0 0 25 27" fill="none" xmlns="http://www.w3.org/2000/svg">
<path d="M6.7165 10.3015C7.04394 7.3545 9.53489 5.125 12.5 5.125V5.125C15.4651 5.125 17.9561 7.3545 18.2835 10.3015L18.5458 12.6621C18.5571 12.7641 18.5628 12.8152 18.569 12.8656C18.7022 13.9393 19.0517 14.9749 19.5966 15.9097C19.6222 15.9536 19.6486 15.9976 19.7014 16.0857L20.3035 17.0892C20.8844 18.0573 21.1748 18.5413 21.0826 18.9358C21.039 19.1226 20.9426 19.2928 20.8049 19.4263C20.514 19.7083 19.9495 19.7083 18.8206 19.7083H6.17941C5.05047 19.7083 4.48601 19.7083 4.1951 19.4263C4.05743 19.2928 3.96104 19.1226 3.91741 18.9358C3.82523 18.5413 4.11565 18.0573 4.69648 17.0892L5.2986 16.0857C5.35141 15.9976 5.37782 15.9536 5.4034 15.9097C5.94826 14.9749 6.29782 13.9393 6.43095 12.8656C6.4372 12.8152 6.44287 12.7641 6.45421 12.6621L6.7165 10.3015Z" stroke="#33363F" stroke-width="2"/>
<path d="M8.33333 19.7083C8.33333 20.2555 8.44111 20.7973 8.6505 21.3028C8.85989 21.8084 9.16681 22.2677 9.55372 22.6546C9.94063 23.0415 10.4 23.3484 10.9055 23.5578C11.411 23.7672 11.9528 23.875 12.5 23.875C13.0472 23.875 13.589 23.7672 14.0945 23.5578C14.6 23.3484 15.0594 23.0415 15.4463 22.6546C15.8332 22.2677 16.1401 21.8084 16.3495 21.3028C16.5589 20.7973 16.6667 20.2555 16.6667 19.7083" stroke="#33363F" stroke-width="2" stroke-linecap="round"/>
<path d="M25 3.5C25 5.433 23.433 7 21.5 7C19.567 7 18 5.433 18 3.5C18 1.567 19.567 0 21.5 0C23.433 0 25 1.567 25 3.5Z" fill="#FFA000"/>
</svg>
