<svg width="25" height="25" viewBox="0 0 25 25" fill="none" xmlns="http://www.w3.org/2000/svg">
<path d="M6.7165 8.30148C7.04394 5.3545 9.53489 3.125 12.5 3.125V3.125C15.4651 3.125 17.9561 5.3545 18.2835 8.30148L18.5458 10.6621C18.5571 10.7641 18.5628 10.8152 18.569 10.8656C18.7022 11.9393 19.0517 12.9749 19.5966 13.9097C19.6222 13.9536 19.6486 13.9976 19.7014 14.0857L20.3035 15.0892C20.8844 16.0573 21.1748 16.5413 21.0826 16.9358C21.039 17.1226 20.9426 17.2928 20.8049 17.4263C20.514 17.7083 19.9495 17.7083 18.8206 17.7083H6.17941C5.05047 17.7083 4.48601 17.7083 4.1951 17.4263C4.05743 17.2928 3.96104 17.1226 3.91741 16.9358C3.82523 16.5413 4.11565 16.0573 4.69648 15.0892L5.2986 14.0857C5.35141 13.9976 5.37782 13.9536 5.4034 13.9097C5.94826 12.9749 6.29782 11.9393 6.43095 10.8656C6.4372 10.8152 6.44287 10.7641 6.45421 10.6621L6.7165 8.30148Z" stroke="#fafafa" stroke-width="2"/>
<path d="M8.33332 17.7083C8.33332 18.2555 8.4411 18.7973 8.65049 19.3028C8.85989 19.8084 9.1668 20.2677 9.55371 20.6546C9.94062 21.0415 10.4 21.3484 10.9055 21.5578C11.411 21.7672 11.9528 21.875 12.5 21.875C13.0472 21.875 13.589 21.7672 14.0945 21.5578C14.6 21.3484 15.0594 21.0415 15.4463 20.6546C15.8332 20.2677 16.1401 19.8084 16.3495 19.3028C16.5589 18.7973 16.6667 18.2555 16.6667 17.7083" stroke="#fafafa" stroke-width="2" stroke-linecap="round"/>
</svg>
