<svg width="30" height="30" viewBox="0 0 30 30" fill="none" xmlns="http://www.w3.org/2000/svg">
<circle cx="15" cy="15" r="15" fill="#B9D3E6"/>
<g clip-path="url(#clip0_1050_733)">
<path d="M22.6922 7.30768H7.3076C6.24029 7.30768 5.39414 8.16345 5.39414 9.23076L5.38452 20.7692C5.38452 21.8365 6.24029 22.6923 7.3076 22.6923H22.6922C23.7595 22.6923 24.6153 21.8365 24.6153 20.7692V9.23076C24.6153 8.16345 23.7595 7.30768 22.6922 7.30768ZM21.7307 20.7692H8.26914C7.74029 20.7692 7.3076 20.3365 7.3076 19.8077V15H22.6922V19.8077C22.6922 20.3365 22.2595 20.7692 21.7307 20.7692ZM22.6922 11.1538H7.3076V9.23076H22.6922V11.1538Z" fill="white"/>
</g>
<defs>
<clipPath id="clip0_1050_733">
<rect width="23.0769" height="23.0769" fill="white" transform="translate(3.46143 3.46155)"/>
</clipPath>
</defs>
</svg>
