<svg width="24" height="24" viewBox="0 0 24 24" fill="none" xmlns="http://www.w3.org/2000/svg">
<circle cx="12" cy="12" r="12" fill="#BBE1E6"/>
<path d="M12 13.7292L13.2292 14.6667C13.3819 14.7778 13.5312 14.7812 13.6771 14.6771C13.8229 14.5729 13.8681 14.4306 13.8125 14.25L13.3333 12.7292L14.6667 11.6667C14.8056 11.5556 14.8472 11.4167 14.7917 11.25C14.7361 11.0833 14.6181 11 14.4375 11H12.8598L12.3542 9.47917C12.2986 9.29861 12.1806 9.20833 12 9.20833C11.8194 9.20833 11.7014 9.29861 11.6458 9.47917L11.1471 11H9.57104C9.38479 11 9.26389 11.0833 9.20833 11.25C9.15278 11.4167 9.19444 11.5556 9.33333 11.6667L10.6667 12.7292L10.1875 14.25C10.1319 14.4306 10.1771 14.5729 10.3229 14.6771C10.4688 14.7812 10.6181 14.7778 10.7708 14.6667L12 13.7292ZM5.5 18C5.0875 18 4.73438 17.8534 4.44063 17.5602C4.14688 17.267 4 16.9146 4 16.5029V13.9767C4 13.8394 4.04465 13.7196 4.13396 13.6171C4.22326 13.5144 4.33806 13.4503 4.47833 13.4246C4.78444 13.3221 5.03125 13.1424 5.21875 12.8854C5.40625 12.6285 5.5 12.3333 5.5 12C5.5 11.6667 5.40625 11.3715 5.21875 11.1146C5.03125 10.8576 4.78444 10.6781 4.47833 10.576C4.33806 10.5505 4.22326 10.4867 4.13396 10.3846C4.04465 10.2825 4 10.1613 4 10.0208V7.49604C4 7.08465 4.14688 6.7325 4.44063 6.43958C4.73438 6.14653 5.0875 6 5.5 6H18.5C18.9125 6 19.2656 6.1466 19.5594 6.43979C19.8531 6.73299 20 7.08542 20 7.49708V10.0233C20 10.1606 19.9553 10.2804 19.866 10.3829C19.7767 10.4856 19.6619 10.5497 19.5217 10.5754C19.2156 10.6779 18.9688 10.8576 18.7812 11.1146C18.5938 11.3715 18.5 11.6667 18.5 12C18.5 12.3333 18.5938 12.6285 18.7812 12.8854C18.9688 13.1424 19.2156 13.3219 19.5217 13.424C19.6619 13.4495 19.7767 13.5133 19.866 13.6154C19.9553 13.7175 20 13.8388 20 13.9792V16.504C20 16.9153 19.8531 17.2675 19.5594 17.5604C19.2656 17.8535 18.9125 18 18.5 18H5.5Z" fill="white"/>
</svg>
