<svg width="24" height="24" viewBox="0 0 24 24" fill="none" xmlns="http://www.w3.org/2000/svg">
<circle cx="12" cy="12" r="12" fill="#D9D9D9"/>
<path d="M10.6875 13.1679L6.23958 14.7254C5.94354 14.8314 5.66293 14.8049 5.39776 14.646C5.13259 14.487 5 14.2714 5 13.9989V13.6533C5 13.5275 5.03342 13.407 5.10026 13.2919C5.1671 13.1766 5.26128 13.0823 5.38281 13.009L10.6875 9.82536V7.14432C10.6875 6.82963 10.8164 6.56024 11.0741 6.33614C11.3319 6.11205 11.6418 6 12.0038 6C12.3659 6 12.6745 6.11205 12.9297 6.33614C13.1849 6.56024 13.3125 6.82963 13.3125 7.14432V9.82743L18.6219 13.0136C18.7403 13.0847 18.8329 13.1778 18.8997 13.293C18.9666 13.408 19 13.5284 19 13.6541V13.9994C19 14.2715 18.8674 14.487 18.6022 14.646C18.3371 14.8049 18.0565 14.8314 17.7604 14.7254L13.3125 13.1679V15.3453L15.1901 16.4896C15.2873 16.5426 15.3633 16.6135 15.418 16.7022C15.4727 16.791 15.5 16.8877 15.5 16.9921V17.3682C15.5 17.5771 15.4054 17.7452 15.2162 17.8723C15.0271 17.9995 14.8179 18.0312 14.5885 17.9677L12 17.2843L9.41656 17.9696C9.18226 18.0319 8.97092 17.9985 8.78255 17.8694C8.59418 17.7403 8.5 17.5725 8.5 17.3659V16.9942C8.5 16.8909 8.52734 16.7942 8.58203 16.7041C8.63672 16.6141 8.71267 16.5426 8.8099 16.4896L10.6875 15.3453V13.1679Z" fill="white"/>
</svg>
