<svg width="24" height="24" viewBox="0 0 24 24" fill="none" xmlns="http://www.w3.org/2000/svg">
<circle cx="12" cy="12" r="12" fill="#FFC998"/>
<path d="M14.6667 8.4V12C14.6667 12.66 15.2667 13.2 16 13.2H16.6667V17.4C16.6667 17.73 16.9667 18 17.3333 18C17.7 18 18 17.73 18 17.4V6.678C18 6.288 17.5933 6 17.1733 6.09C15.7333 6.408 14.6667 7.506 14.6667 8.4ZM11.3333 10.2H10V6.6C10 6.27 9.7 6 9.33333 6C8.96667 6 8.66667 6.27 8.66667 6.6V10.2H7.33333V6.6C7.33333 6.27 7.03333 6 6.66667 6C6.3 6 6 6.27 6 6.6V10.2C6 11.526 7.19333 12.6 8.66667 12.6V17.4C8.66667 17.73 8.96667 18 9.33333 18C9.7 18 10 17.73 10 17.4V12.6C11.4733 12.6 12.6667 11.526 12.6667 10.2V6.6C12.6667 6.27 12.3667 6 12 6C11.6333 6 11.3333 6.27 11.3333 6.6V10.2Z" fill="white"/>
</svg>
