<svg width="24" height="24" viewBox="0 0 24 24" fill="none" xmlns="http://www.w3.org/2000/svg">
<circle cx="12" cy="12" r="12" fill="#FFC9C9"/>
<path d="M12 18C11.8646 18 11.7318 17.9754 11.6016 17.9261C11.4714 17.8769 11.349 17.7975 11.2344 17.6881L10.3125 16.8015C9.17708 15.7398 8.17448 14.7027 7.30469 13.6903C6.4349 12.6779 6 11.5751 6 10.3821C6 9.41891 6.3125 8.61443 6.9375 7.96866C7.5625 7.32289 8.33854 7 9.26563 7C9.79688 7 10.2995 7.11766 10.7734 7.35299C11.2474 7.58831 11.6562 7.92488 12 8.36269C12.3646 7.92488 12.7786 7.58831 13.2422 7.35299C13.7057 7.11766 14.2031 7 14.7344 7C15.6615 7 16.4375 7.32289 17.0625 7.96866C17.6875 8.61443 18 9.41891 18 10.3821C18 11.5751 17.5651 12.6779 16.6953 13.6903C15.8255 14.7027 14.8229 15.7398 13.6875 16.8015L12.7656 17.6881C12.651 17.7975 12.5286 17.8769 12.3984 17.9261C12.2682 17.9754 12.1354 18 12 18Z" fill="white"/>
</svg>
