<svg width="24" height="24" viewBox="0 0 24 24" fill="none" xmlns="http://www.w3.org/2000/svg">
<circle cx="12" cy="12" r="12" fill="#D1A3FF"/>
<path d="M17.2845 11.5714V16.7079C17.2845 17.0632 17.1737 17.3674 16.9519 17.6204C16.7302 17.8735 16.4637 18 16.1523 18H7.84968C7.53833 18 7.27179 17.872 7.05008 17.6161C6.82836 17.3601 6.7175 17.0595 6.7175 16.7143V11.5536C6.37155 11.2798 6.15403 10.9286 6.06492 10.5C5.97581 10.0714 5.97843 9.61905 6.07278 9.14286L6.79612 6.85714C6.84854 6.57143 6.96909 6.35714 7.15779 6.21429C7.34649 6.07143 7.57539 6 7.84449 6H16.1575C16.4266 6 16.6529 6.06548 16.8364 6.19643C17.0198 6.32738 17.143 6.54762 17.2059 6.85714L17.9292 9.14286C18.0236 9.61905 18.0236 10.0714 17.9292 10.5C17.8349 10.9286 17.62 11.2857 17.2845 11.5714ZM13.3848 10.7143C13.6049 10.7143 13.791 10.631 13.943 10.4643C14.095 10.2976 14.1605 10.0952 14.1396 9.85714L13.7622 7.28571H12.63V9.85036C12.63 10.093 12.7034 10.2976 12.8501 10.4643C12.9969 10.631 13.1751 10.7143 13.3848 10.7143ZM10.6094 10.7143C10.8243 10.7143 11.0051 10.631 11.1519 10.4643C11.2986 10.2976 11.372 10.093 11.372 9.85036V7.28571H10.2398L9.86245 9.85714C9.84148 10.0952 9.907 10.2976 10.059 10.4643C10.211 10.631 10.3945 10.7143 10.6094 10.7143ZM7.84968 10.7143C8.03838 10.7143 8.20349 10.6488 8.34501 10.5179C8.48653 10.3869 8.56778 10.2202 8.58874 10.0179L8.98186 7.28571H7.84968L7.14207 9.57143C7.0582 9.84524 7.08965 10.1042 7.23641 10.3482C7.38318 10.5923 7.5876 10.7143 7.84968 10.7143ZM16.1523 10.7143C16.4144 10.7143 16.6215 10.5923 16.7735 10.3482C16.9255 10.1042 16.9595 9.84524 16.8757 9.57143L16.1523 7.28571H15.0202L15.4133 10.0179C15.4342 10.2202 15.5181 10.3869 15.6649 10.5179C15.8116 10.6488 15.9741 10.7143 16.1523 10.7143ZM9.36035 16.2857H10.8746C10.9756 16.2857 11.0628 16.2429 11.1361 16.1571C11.2095 16.0714 11.2462 15.9714 11.2462 15.8571C11.2462 15.7429 11.2085 15.6429 11.133 15.5571C11.0575 15.4714 10.9695 15.4286 10.8688 15.4286H9.73665V15H10.8743C10.9755 15 11.0628 14.9571 11.1361 14.8714C11.2095 14.7857 11.2462 14.6857 11.2462 14.5714V13.2857C11.2462 13.1714 11.2084 13.0714 11.1327 12.9857C11.057 12.9 10.9687 12.8571 10.8677 12.8571H9.35344C9.25248 12.8571 9.16532 12.9 9.09193 12.9857C9.01855 13.0714 8.98186 13.1714 8.98186 13.2857C8.98186 13.4 9.0196 13.5 9.09508 13.5857C9.17056 13.6714 9.25862 13.7143 9.35925 13.7143H10.4914V14.1429H9.35375C9.25259 14.1429 9.16532 14.1857 9.09193 14.2714C9.01855 14.3571 8.98186 14.4571 8.98186 14.5714V15.8571C8.98186 15.9714 9.0197 16.0714 9.09539 16.1571C9.17108 16.2429 9.2594 16.2857 9.36035 16.2857ZM14.2654 15.4286V15.8571C14.2654 15.9714 14.3031 16.0714 14.3786 16.1571C14.4541 16.2429 14.5421 16.2857 14.6428 16.2857C14.7434 16.2857 14.8315 16.2429 14.9069 16.1571C14.9824 16.0714 15.0202 15.9714 15.0202 15.8571V13.2857C15.0202 13.1714 14.9824 13.0714 14.9069 12.9857C14.8315 12.9 14.7434 12.8571 14.6428 12.8571C14.5421 12.8571 14.4541 12.9 14.3786 12.9857C14.3031 13.0714 14.2654 13.1714 14.2654 13.2857V14.5714H13.5106V13.2857C13.5106 13.1714 13.4728 13.0714 13.3974 12.9857C13.3219 12.9 13.2338 12.8571 13.1332 12.8571C13.0326 12.8571 12.9445 12.9001 12.869 12.9861C12.7935 13.072 12.7558 13.1723 12.7558 13.287V15.0066C12.7558 15.1213 12.7935 15.2202 12.869 15.3036C12.9445 15.3869 13.0326 15.4286 13.1332 15.4286H14.2654Z" fill="white"/>
</svg>
