<svg width="24" height="24" viewBox="0 0 24 24" fill="none" xmlns="http://www.w3.org/2000/svg">
<circle cx="12" cy="12" r="12" fill="#B3E39D"/>
<path d="M11.3478 19C10.1401 19 9.11353 18.6081 8.26812 17.8243C7.42271 17.0405 7 16.0887 7 14.969V13.7597C7.85749 13.7597 8.65157 13.9221 9.38225 14.2468C10.1129 14.5715 10.7681 15.0474 11.3478 15.6744V13.3734C10.285 13.2166 9.40338 12.7575 8.7029 11.9961C8.00242 11.2347 7.65217 10.3445 7.65217 9.32558V6.89018C7.65217 6.64384 7.76691 6.46469 7.99638 6.35271C8.22585 6.24074 8.44928 6.25194 8.66667 6.3863L10.2609 7.37726L11.5471 6.18475C11.68 6.06158 11.8309 6 12 6C12.1691 6 12.32 6.06158 12.4529 6.18475L13.7391 7.37726L15.3333 6.3863C15.5507 6.25194 15.7742 6.24074 16.0036 6.35271C16.2331 6.46469 16.3478 6.64384 16.3478 6.89018V9.32558C16.3478 10.3445 15.9976 11.2347 15.2971 11.9961C14.5966 12.7575 13.715 13.2166 12.6522 13.3734V15.6744C13.2319 15.0474 13.8871 14.5715 14.6178 14.2468C15.3484 13.9221 16.1425 13.7597 17 13.7597V14.969C17 16.0887 16.5773 17.0405 15.7319 17.8243C14.8865 18.6081 13.8599 19 12.6522 19H11.3478Z" fill="white"/>
</svg>
