<svg width="24" height="24" viewBox="0 0 24 24" fill="none" xmlns="http://www.w3.org/2000/svg">
<circle cx="12" cy="12" r="12" fill="#B4CABD"/>
<path d="M6 15.3158C6 15.9642 6.2925 16.5463 6.75 16.9516V17.8947C6.75 18.5063 7.2525 19 7.875 19C8.4975 19 9 18.5063 9 17.8947V17.5263H15V17.8947C15 18.4989 15.5025 19 16.125 19C16.74 19 17.25 18.5063 17.25 17.8947V16.9516C17.7075 16.5463 18 15.9642 18 15.3158V7.94737C18 5.36842 15.315 5 12 5C8.685 5 6 5.36842 6 7.94737V15.3158ZM8.625 16.0526C8.0025 16.0526 7.5 15.5589 7.5 14.9474C7.5 14.3358 8.0025 13.8421 8.625 13.8421C9.2475 13.8421 9.75 14.3358 9.75 14.9474C9.75 15.5589 9.2475 16.0526 8.625 16.0526ZM15.375 16.0526C14.7525 16.0526 14.25 15.5589 14.25 14.9474C14.25 14.3358 14.7525 13.8421 15.375 13.8421C15.9975 13.8421 16.5 14.3358 16.5 14.9474C16.5 15.5589 15.9975 16.0526 15.375 16.0526ZM16.5 11.6316H7.5V7.94737H16.5V11.6316Z" fill="white"/>
</svg>
