<svg width="24" height="24" viewBox="0 0 24 24" fill="none" xmlns="http://www.w3.org/2000/svg">
<circle cx="12" cy="12" r="12" fill="#8687B3"/>
<path d="M16.7143 9.76667H15.6257C15.8314 9.37667 15.9429 8.93467 15.9429 8.46667C15.9429 6.91533 14.6914 5.65 13.1571 5.65C12.9514 5.65 12.7543 5.676 12.5657 5.71067C12.0429 5.26867 11.3657 5 10.6286 5C9.38571 5 8.31429 5.77133 7.86 6.86333C6.78 7.21 6 8.23267 6 9.43733C6 10.746 6.91714 11.838 8.14286 12.0893V13.424V16.6913C8.14286 17.4193 8.71714 18 9.42857 18H14.1429C14.8543 18 15.4286 17.4193 15.4286 16.7H16.7143C17.4257 16.7 18 16.1193 18 15.4V11.0667C18 10.3473 17.4257 9.76667 16.7143 9.76667ZM12.6771 8.46667C11.9914 8.46667 11.3486 8.73533 10.86 9.22933L9.66857 10.434C9.39429 10.7113 9.00857 10.876 8.58857 10.85C7.88571 10.8067 7.32 10.2173 7.28571 9.50667C7.25143 8.70067 7.88571 8.03333 8.67429 8.03333C8.79429 8.03333 8.90571 7.94667 8.92286 7.82533C9.02571 6.95867 9.76286 6.3 10.6286 6.3C11.2371 6.3 11.7771 6.62067 12.0771 7.106C12.1371 7.21 12.2743 7.236 12.3686 7.17533C12.6 7.03667 12.8657 6.95 13.1571 6.95C13.98 6.95 14.6571 7.63467 14.6571 8.46667H12.6771ZM16.7143 15.4H15.4286V11.0667H16.7143V15.4Z" fill="white"/>
</svg>
