<svg width="24" height="24" viewBox="0 0 24 24" fill="none" xmlns="http://www.w3.org/2000/svg">
<circle cx="12" cy="12" r="12" fill="#AF8968"/>
<path d="M8.52083 20C7.82455 20 7.23037 19.7483 6.7383 19.2449C6.2461 18.7417 6 18.134 6 17.4219V7.59766C6 6.88021 6.2461 6.2679 6.7383 5.76074C7.23037 5.25358 7.82455 5 8.52083 5H15.625C16.0031 5 16.3268 5.1377 16.5961 5.41309C16.8654 5.68848 17 6.01953 17 6.40625V15.6836C17 15.8275 16.9554 15.9578 16.8663 16.0746C16.7772 16.1915 16.6563 16.2826 16.5035 16.3477C16.2998 16.4388 16.1406 16.582 16.026 16.7773C15.9115 16.9727 15.8542 17.1875 15.8542 17.4219C15.8542 17.6562 15.9146 17.8711 16.0356 18.0664C16.1565 18.2617 16.3061 18.3984 16.4844 18.4766C16.6499 18.5417 16.7772 18.6393 16.8663 18.7695C16.9554 18.8997 17 19.0495 17 19.2188C17 19.4271 16.9395 19.6094 16.8186 19.7656C16.6976 19.9219 16.5353 20 16.3316 20H8.52083ZM9.43349 14.8633C9.62714 14.8633 9.7908 14.7959 9.92448 14.6611C10.0582 14.5264 10.125 14.3594 10.125 14.1602V7.10938C10.125 6.91016 10.0595 6.74316 9.92849 6.6084C9.79748 6.47363 9.63516 6.40625 9.44151 6.40625C9.24786 6.40625 9.0842 6.47363 8.95052 6.6084C8.81684 6.74316 8.75 6.91016 8.75 7.10938V14.1602C8.75 14.3594 8.8155 14.5264 8.94651 14.6611C9.07752 14.7959 9.23984 14.8633 9.43349 14.8633ZM8.52083 18.5938H14.7465C14.6574 18.4115 14.5906 18.2292 14.546 18.0469C14.5014 17.8646 14.4792 17.661 14.4792 17.4361C14.4792 17.2245 14.5046 17.0195 14.5556 16.8211C14.6065 16.6227 14.6765 16.4323 14.7656 16.25H8.52083C8.18981 16.25 7.91609 16.3639 7.69965 16.5918C7.48322 16.8197 7.375 17.0964 7.375 17.4219C7.375 17.7604 7.48322 18.0404 7.69965 18.2617C7.91609 18.4831 8.18981 18.5938 8.52083 18.5938Z" fill="white"/>
</svg>
