<svg width="24" height="24" viewBox="0 0 24 24" fill="none" xmlns="http://www.w3.org/2000/svg">
<circle cx="12" cy="12" r="12" fill="#AF8968"/>
<path d="M16.6667 6H8.33333C7.6 6 7 6.6 7 7.33333V11.14C7 13.6933 8.96667 15.9267 11.52 16C14.16 16.08 16.3333 13.96 16.3333 11.3333V10.6667H16.6667C17.9533 10.6667 19 9.62 19 8.33333C19 7.04667 17.9533 6 16.6667 6ZM15 7.33333V9.33333H8.33333V7.33333H15ZM16.6667 9.33333H16.3333V7.33333H16.6667C17.22 7.33333 17.6667 7.78 17.6667 8.33333C17.6667 8.88667 17.22 9.33333 16.6667 9.33333ZM7.66667 16.6667H17C17.3667 16.6667 17.6667 16.9667 17.6667 17.3333C17.6667 17.7 17.3667 18 17 18H7.66667C7.3 18 7 17.7 7 17.3333C7 16.9667 7.3 16.6667 7.66667 16.6667Z" fill="white"/>
</svg>
