<svg width="24" height="24" viewBox="0 0 24 24" fill="none" xmlns="http://www.w3.org/2000/svg">
<circle cx="12" cy="12" r="12" fill="#DBA4B3"/>
<path d="M6.3125 15.4V16.7H17.6875V15.4H6.3125ZM6.3125 7.6H8.1901C8.15365 7.49167 8.1263 7.38333 8.10807 7.275C8.08984 7.16667 8.08073 7.05833 8.08073 6.95C8.08073 6.40833 8.27214 5.94792 8.65495 5.56875C9.03776 5.18958 9.52083 5 10.1042 5C10.3837 5 10.651 5.05718 10.9063 5.17153C11.1615 5.28588 11.3741 5.45741 11.5443 5.68611L12 6.31806L12.474 5.70417C12.6441 5.4875 12.8506 5.31597 13.0934 5.18958C13.3361 5.06319 13.5975 5 13.8776 5C14.4974 5 14.9926 5.18657 15.3633 5.55972C15.7339 5.93287 15.9193 6.3963 15.9193 6.95C15.9193 7.05833 15.9102 7.16667 15.8919 7.275C15.8737 7.38333 15.8464 7.49167 15.8099 7.6H17.6875C18.0484 7.6 18.3574 7.72729 18.6145 7.98188C18.8715 8.23646 19 8.5425 19 8.9V16.7C19 17.0575 18.8715 17.3635 18.6145 17.6181C18.3574 17.8727 18.0484 18 17.6875 18H6.3125C5.96007 18 5.65321 17.8727 5.39193 17.6181C5.13064 17.3635 5 17.0575 5 16.7V8.9C5 8.5425 5.13064 8.23646 5.39193 7.98188C5.65321 7.72729 5.96007 7.6 6.3125 7.6ZM6.3125 13.6667H17.6875V8.9H13.9141L15.1354 10.525C15.2448 10.6694 15.2843 10.8289 15.2539 11.0035C15.2235 11.178 15.1354 11.3194 14.9896 11.4278C14.8438 11.5361 14.6827 11.5782 14.5065 11.5542C14.3303 11.5301 14.1875 11.4458 14.0781 11.3014L12 8.50278L9.9401 11.3014C9.83073 11.4458 9.68793 11.5301 9.51172 11.5542C9.3355 11.5782 9.17448 11.5361 9.02865 11.4278C8.88281 11.3194 8.79471 11.178 8.76432 11.0035C8.73394 10.8289 8.77344 10.6694 8.88281 10.525L10.0859 8.9H6.3125V13.6667ZM10.0274 7.58194C10.2123 7.58194 10.3685 7.52001 10.4961 7.39615C10.6237 7.27229 10.6875 7.11882 10.6875 6.93574C10.6875 6.75265 10.625 6.59792 10.4999 6.47153C10.3749 6.34514 10.2199 6.28194 10.0351 6.28194C9.85023 6.28194 9.69401 6.34387 9.56641 6.46774C9.4388 6.5916 9.375 6.74507 9.375 6.92815C9.375 7.11124 9.43753 7.26597 9.56258 7.39236C9.68763 7.51875 9.84258 7.58194 10.0274 7.58194ZM13.9649 7.58194C14.1498 7.58194 14.306 7.52001 14.4336 7.39615C14.5612 7.27229 14.625 7.11882 14.625 6.93574C14.625 6.75265 14.5625 6.59792 14.4374 6.47153C14.3124 6.34514 14.1574 6.28194 13.9726 6.28194C13.7877 6.28194 13.6315 6.34387 13.5039 6.46774C13.3763 6.5916 13.3125 6.74507 13.3125 6.92815C13.3125 7.11124 13.375 7.26597 13.5001 7.39236C13.6251 7.51875 13.7801 7.58194 13.9649 7.58194Z" fill="white"/>
</svg>
