<svg width="24" height="24" viewBox="0 0 24 24" fill="none" xmlns="http://www.w3.org/2000/svg">
<circle cx="12" cy="12" r="12" fill="#FFD0E1"/>
<path d="M6 16.875V9.875C6 9.64097 6.05208 9.41931 6.15625 9.21C6.26042 9.00056 6.40972 8.81944 6.60417 8.66667L11.1042 5.29167C11.3819 5.09722 11.6806 5 12 5C12.3194 5 12.6181 5.09722 12.8958 5.29167L17.3958 8.66667C17.5903 8.81944 17.7396 9.00056 17.8438 9.21C17.9479 9.41931 18 9.64097 18 9.875V16.875C18 17.3563 17.8287 17.7682 17.486 18.1108C17.1433 18.4536 16.7313 18.625 16.25 18.625H14.25C14.0375 18.625 13.8594 18.5531 13.7156 18.4094C13.5719 18.2656 13.5 18.0875 13.5 17.875V13.875C13.5 13.6625 13.4283 13.4844 13.285 13.3406C13.1415 13.1969 12.9638 13.125 12.7519 13.125H11.2554C11.0435 13.125 10.8646 13.1969 10.7188 13.3406C10.5729 13.4844 10.5 13.6625 10.5 13.875V17.875C10.5 18.0875 10.4281 18.2656 10.2844 18.4094C10.1406 18.5531 9.9625 18.625 9.75 18.625H7.75C7.26875 18.625 6.85681 18.4536 6.51417 18.1108C6.17139 17.7682 6 17.3563 6 16.875Z" fill="white"/>
</svg>
