<svg width="24" height="24" viewBox="0 0 24 24" fill="none" xmlns="http://www.w3.org/2000/svg">
<path d="M12 24C10.3542 24 8.80208 23.6875 7.34375 23.0625C5.88542 22.4375 4.60938 21.5781 3.51562 20.4844C2.42188 19.3906 1.5625 18.1146 0.9375 16.6562C0.3125 15.1979 0 13.6458 0 12C0 10.3333 0.3125 8.77604 0.9375 7.32812C1.5625 5.88021 2.42188 4.60938 3.51562 3.51562C4.60938 2.42188 5.88542 1.5625 7.34375 0.9375C8.80208 0.3125 10.3542 0 12 0C13.6667 0 15.224 0.3125 16.6719 0.9375C18.1198 1.5625 19.3906 2.42188 20.4844 3.51562C21.5781 4.60938 22.4375 5.88021 23.0625 7.32812C23.6875 8.77604 24 10.3333 24 12C24 13.6458 23.6875 15.1979 23.0625 16.6562C22.4375 18.1146 21.5781 19.3906 20.4844 20.4844C19.3906 21.5781 18.1198 22.4375 16.6719 23.0625C15.224 23.6875 13.6667 24 12 24ZM11.9688 20.25C12.2604 20.25 12.5104 20.1562 12.7188 19.9688C12.9271 19.7812 13.0312 19.5417 13.0312 19.25V18.7812C14.0521 18.6146 14.8906 18.1771 15.5469 17.4688C16.2031 16.7604 16.5312 15.9271 16.5312 14.9688C16.5312 14.0312 16.2292 13.2188 15.625 12.5312C15.0208 11.8438 14.1562 11.3021 13.0312 10.9062C11.8438 10.4896 11.0312 10.1146 10.5938 9.78125C10.1562 9.44792 9.9375 9.02083 9.9375 8.5C9.9375 8.08333 10.125 7.73958 10.5 7.46875C10.875 7.19792 11.3646 7.0625 11.9688 7.0625C12.3646 7.0625 12.7188 7.125 13.0312 7.25C13.3438 7.375 13.6042 7.55208 13.8125 7.78125C14.0208 8.03125 14.2552 8.19792 14.5156 8.28125C14.776 8.36458 15.0208 8.35417 15.25 8.25C15.5208 8.125 15.7031 7.9375 15.7969 7.6875C15.8906 7.4375 15.8646 7.19792 15.7188 6.96875C15.4062 6.48958 15.0156 6.10417 14.5469 5.8125C14.0781 5.52083 13.5729 5.32292 13.0312 5.21875V4.75C13.0312 4.45833 12.9323 4.21875 12.7344 4.03125C12.5365 3.84375 12.2917 3.75 12 3.75C11.7083 3.75 11.4635 3.84375 11.2656 4.03125C11.0677 4.21875 10.9688 4.45833 10.9688 4.75V5.21875C10.0312 5.44792 9.28125 5.86458 8.71875 6.46875C8.15625 7.07292 7.875 7.76042 7.875 8.53125C7.875 9.42708 8.17708 10.1979 8.78125 10.8438C9.38542 11.4896 10.4062 12.0833 11.8438 12.625C12.8854 13.0208 13.5938 13.3906 13.9688 13.7344C14.3438 14.0781 14.5312 14.4896 14.5312 14.9688C14.5312 15.5104 14.3125 15.9688 13.875 16.3438C13.4375 16.7188 12.8958 16.9062 12.25 16.9062C11.7083 16.9062 11.2135 16.7708 10.7656 16.5C10.3177 16.2292 9.96875 15.8542 9.71875 15.375C9.57292 15.125 9.36979 14.9479 9.10938 14.8438C8.84896 14.7396 8.59375 14.7396 8.34375 14.8438C8.05208 14.9479 7.85417 15.1354 7.75 15.4062C7.64583 15.6771 7.65625 15.9375 7.78125 16.1875C8.11458 16.8333 8.55729 17.3802 9.10938 17.8281C9.66146 18.276 10.2708 18.5833 10.9375 18.75V19.25C10.9375 19.5417 11.0365 19.7812 11.2344 19.9688C11.4323 20.1562 11.6771 20.25 11.9688 20.25Z" fill="#FFB432"/>
</svg>
