<svg width="24" height="24" viewBox="0 0 24 24" fill="none" xmlns="http://www.w3.org/2000/svg">
<circle cx="12" cy="12" r="12" fill="#FFC998"/>
<path d="M10.23 15.052C11.205 15.962 12.795 15.962 13.77 15.052C14.745 14.142 14.745 12.658 13.77 11.748L10.23 15.052ZM16.5 5.007L7.5 5C6.6675 5 6 5.623 6 6.4V17.6C6 18.377 6.6675 19 7.5 19H16.5C17.3325 19 18 18.377 18 17.6V6.4C18 5.623 17.3325 5.007 16.5 5.007ZM11.25 7.1C11.6625 7.1 12 7.415 12 7.8C12 8.185 11.6625 8.5 11.25 8.5C10.8375 8.5 10.5 8.185 10.5 7.8C10.5 7.415 10.8375 7.1 11.25 7.1ZM9 7.1C9.4125 7.1 9.75 7.415 9.75 7.8C9.75 8.185 9.4125 8.5 9 8.5C8.5875 8.5 8.25 8.185 8.25 7.8C8.25 7.415 8.5875 7.1 9 7.1ZM12 16.9C9.93 16.9 8.25 15.332 8.25 13.4C8.25 11.468 9.93 9.9 12 9.9C14.07 9.9 15.75 11.468 15.75 13.4C15.75 15.332 14.07 16.9 12 16.9Z" fill="white"/>
</svg>
