<svg width="24" height="24" viewBox="0 0 24 24" fill="none" xmlns="http://www.w3.org/2000/svg">
<circle cx="12" cy="12" r="12" fill="#A4A4A4"/>
<path d="M5.45455 18C5.05455 18 4.71212 17.8531 4.42727 17.5594C4.14242 17.2656 4 16.9125 4 16.5V9C4 8.7875 4.0697 8.60938 4.20909 8.46563C4.34848 8.32188 4.52121 8.25 4.72727 8.25C4.93333 8.25 5.10606 8.32188 5.24545 8.46563C5.38485 8.60938 5.45455 8.7875 5.45455 9V16.5H17.0909C17.297 16.5 17.4697 16.5719 17.6091 16.7156C17.7485 16.8594 17.8182 17.0375 17.8182 17.25C17.8182 17.4625 17.7485 17.6406 17.6091 17.7844C17.4697 17.9281 17.297 18 17.0909 18H5.45455ZM8.36364 15C7.96364 15 7.62121 14.8531 7.33636 14.5594C7.05152 14.2656 6.90909 13.9125 6.90909 13.5V7.5C6.90909 7.0875 7.05152 6.73438 7.33636 6.44063C7.62121 6.14687 7.96364 6 8.36364 6H18.5455C18.9455 6 19.2879 6.14687 19.5727 6.44063C19.8576 6.73438 20 7.0875 20 7.5V13.5C20 13.9125 19.8576 14.2656 19.5727 14.5594C19.2879 14.8531 18.9455 15 18.5455 15H8.36364ZM9.81818 13.5C9.81818 13.0875 9.67576 12.7344 9.39091 12.4406C9.10606 12.1469 8.76364 12 8.36364 12V13.5H9.81818ZM17.0909 13.5H18.5455V12C18.1455 12 17.803 12.1469 17.5182 12.4406C17.2333 12.7344 17.0909 13.0875 17.0909 13.5ZM13.4545 12.75C14.0606 12.75 14.5758 12.5313 15 12.0938C15.4242 11.6563 15.6364 11.125 15.6364 10.5C15.6364 9.875 15.4242 9.34375 15 8.90625C14.5758 8.46875 14.0606 8.25 13.4545 8.25C12.8485 8.25 12.3333 8.46875 11.9091 8.90625C11.4848 9.34375 11.2727 9.875 11.2727 10.5C11.2727 11.125 11.4848 11.6563 11.9091 12.0938C12.3333 12.5313 12.8485 12.75 13.4545 12.75ZM8.36364 9C8.76364 9 9.10606 8.85313 9.39091 8.55938C9.67576 8.26563 9.81818 7.9125 9.81818 7.5H8.36364V9ZM18.5455 9V7.5H17.0909C17.0909 7.9125 17.2333 8.26563 17.5182 8.55938C17.803 8.85313 18.1455 9 18.5455 9Z" fill="#FAFAFA"/>
</svg>
