<svg width="24" height="24" viewBox="0 0 24 24" fill="none" xmlns="http://www.w3.org/2000/svg">
<circle cx="12" cy="12" r="12" fill="#C1DDE1"/>
<g clip-path="url(#clip0_302_1379)">
<path d="M8.25 12C8.94036 12 9.5 11.4404 9.5 10.75C9.5 10.0596 8.94036 9.5 8.25 9.5C7.55964 9.5 7 10.0596 7 10.75C7 11.4404 7.55964 12 8.25 12Z" fill="white"/>
<path d="M10.5 10C11.1904 10 11.75 9.44036 11.75 8.75C11.75 8.05964 11.1904 7.5 10.5 7.5C9.80964 7.5 9.25 8.05964 9.25 8.75C9.25 9.44036 9.80964 10 10.5 10Z" fill="white"/>
<path d="M13.5 10C14.1904 10 14.75 9.44036 14.75 8.75C14.75 8.05964 14.1904 7.5 13.5 7.5C12.8096 7.5 12.25 8.05964 12.25 8.75C12.25 9.44036 12.8096 10 13.5 10Z" fill="white"/>
<path d="M15.75 12C16.4404 12 17 11.4404 17 10.75C17 10.0596 16.4404 9.5 15.75 9.5C15.0596 9.5 14.5 10.0596 14.5 10.75C14.5 11.4404 15.0596 12 15.75 12Z" fill="white"/>
<path d="M14.67 13.43C14.235 12.92 13.87 12.485 13.43 11.975C13.2 11.705 12.905 11.435 12.555 11.315C12.5 11.295 12.445 11.28 12.39 11.27C12.265 11.25 12.13 11.25 12 11.25C11.87 11.25 11.735 11.25 11.605 11.275C11.55 11.285 11.495 11.3 11.44 11.32C11.09 11.44 10.8 11.71 10.565 11.98C10.13 12.49 9.76501 12.925 9.32501 13.435C8.67001 14.09 7.86501 14.815 8.01501 15.83C8.16001 16.34 8.52501 16.845 9.18001 16.99C9.54501 17.065 10.71 16.77 11.95 16.77H12.04C13.28 16.77 14.445 17.06 14.81 16.99C15.465 16.845 15.83 16.335 15.975 15.83C16.13 14.81 15.325 14.085 14.67 13.43Z" fill="white"/>
</g>
<defs>
<clipPath id="clip0_302_1379">
<rect width="12" height="12" fill="white" transform="translate(6 6)"/>
</clipPath>
</defs>
</svg>
