<svg width="24" height="24" viewBox="0 0 24 24" fill="none" xmlns="http://www.w3.org/2000/svg">
<circle cx="12" cy="12" r="12" fill="#FFE483"/>
<path d="M13.7123 12C13.9517 12 14.1548 11.9173 14.3214 11.752C14.4881 11.5867 14.5714 11.3843 14.5714 11.1448C14.5714 10.9054 14.4887 10.7024 14.3234 10.5357C14.1582 10.369 13.9558 10.2857 13.7162 10.2857C13.4768 10.2857 13.2738 10.3684 13.1071 10.5338C12.9405 10.699 12.8571 10.9014 12.8571 11.1409C12.8571 11.3803 12.9398 11.5833 13.1052 11.75C13.2704 11.9167 13.4728 12 13.7123 12ZM10.2838 12C10.5232 12 10.7262 11.9173 10.8929 11.752C11.0595 11.5867 11.1429 11.3843 11.1429 11.1448C11.1429 10.9054 11.0602 10.7024 10.8948 10.5357C10.7296 10.369 10.5272 10.2857 10.2877 10.2857C10.0483 10.2857 9.84524 10.3684 9.67857 10.5338C9.5119 10.699 9.42857 10.9014 9.42857 11.1409C9.42857 11.3803 9.51125 11.5833 9.67661 11.75C9.84185 11.9167 10.0442 12 10.2838 12ZM12 15.4286C12.6786 15.4286 13.3036 15.2351 13.875 14.8482C14.4464 14.4613 14.881 13.9405 15.1786 13.2857H8.82143C9.10714 13.9405 9.53869 14.4613 10.1161 14.8482C10.6935 15.2351 11.3214 15.4286 12 15.4286ZM12 18C11.1667 18 10.3861 17.8417 9.65839 17.525C8.93054 17.2083 8.2972 16.7805 7.75839 16.2416C7.21946 15.7028 6.79167 15.0695 6.475 14.3416C6.15833 13.6139 6 12.8333 6 12C6 11.1667 6.15833 10.3861 6.475 9.65839C6.79167 8.93054 7.21946 8.2972 7.75839 7.75839C8.2972 7.21946 8.93054 6.79167 9.65839 6.475C10.3861 6.15833 11.1667 6 12 6C12.8333 6 13.6139 6.15833 14.3416 6.475C15.0695 6.79167 15.7028 7.21946 16.2416 7.75839C16.7805 8.2972 17.2083 8.93054 17.525 9.65839C17.8417 10.3861 18 11.1667 18 12C18 12.8333 17.8417 13.6139 17.525 14.3416C17.2083 15.0695 16.7805 15.7028 16.2416 16.2416C15.7028 16.7805 15.0695 17.2083 14.3416 17.525C13.6139 17.8417 12.8333 18 12 18ZM12 9.42857C12.3333 9.42857 12.6161 9.35417 12.8482 9.20536C13.0804 9.05655 13.1964 8.88095 13.1964 8.67857C13.1964 8.56429 13.1573 8.46429 13.0791 8.37857C13.0009 8.29286 12.9031 8.25 12.7857 8.25C12.6429 8.25 12.5238 8.30357 12.4286 8.41071C12.3333 8.51786 12.1905 8.57143 12 8.57143C11.82 8.57143 11.6679 8.50929 11.5436 8.385C11.4193 8.26071 11.3571 8.10857 11.3571 7.92857C11.3571 7.75 11.4137 7.60417 11.5268 7.49107C11.6399 7.37798 11.8036 7.30357 12.0179 7.26786C11.7798 7.29167 11.5387 7.31548 11.2946 7.33929C11.0506 7.3631 10.8095 7.41667 10.5714 7.5C10.5476 7.59524 10.5298 7.68452 10.5179 7.76786C10.506 7.85119 10.5 7.93452 10.5 8.01786C10.5 8.3869 10.6548 8.71429 10.9643 9C11.2738 9.28571 11.619 9.42857 12 9.42857Z" fill="white"/>
</svg>
