<svg width="24" height="24" viewBox="0 0 24 24" fill="none" xmlns="http://www.w3.org/2000/svg">
<circle cx="12" cy="12" r="12" fill="#9DC1E3"/>
<path d="M16.285 13.43L16.645 13.07C16.84 12.875 16.84 12.56 16.645 12.365L16.635 12.355C16.44 12.16 16.125 12.16 15.93 12.355L14.5 13.785L10.215 9.50001L11.645 8.07001C11.84 7.87501 11.84 7.56001 11.645 7.36501L11.635 7.35501C11.44 7.16001 11.125 7.16001 10.93 7.35501L10.57 7.71501L10.21 7.35501C10.015 7.16001 9.69499 7.16001 9.49999 7.35501L8.78499 8.07001L8.42499 7.71001C8.22999 7.51501 7.90499 7.51501 7.70999 7.71001C7.51499 7.90501 7.51499 8.23001 7.70999 8.42501L8.06999 8.78501L7.35499 9.50001C7.15999 9.69501 7.15999 10.01 7.35499 10.205L7.71499 10.565L7.35499 10.93C7.15999 11.125 7.15999 11.44 7.35499 11.635L7.36499 11.645C7.55999 11.84 7.87499 11.84 8.06999 11.645L9.49999 10.215L13.785 14.5L12.355 15.93C12.16 16.125 12.16 16.44 12.355 16.635L12.365 16.645C12.56 16.84 12.875 16.84 13.07 16.645L13.43 16.285L13.79 16.645C13.985 16.84 14.3 16.84 14.495 16.645L15.21 15.93L15.57 16.29C15.765 16.485 16.09 16.485 16.285 16.29C16.48 16.095 16.48 15.77 16.285 15.575L15.925 15.215L16.645 14.5C16.84 14.305 16.84 13.99 16.645 13.795L16.285 13.43Z" fill="white"/>
</svg>
