<svg width="24" height="24" viewBox="0 0 24 24" fill="none" xmlns="http://www.w3.org/2000/svg">
<circle cx="12" cy="12" r="12" fill="#9DC1E3"/>
<path d="M16.4545 8.18182H14.3171V6.54545C14.3171 6.24545 14.0705 6 13.769 6C13.4676 6 13.221 6.24545 13.221 6.54545V8.18182H11.0835C10.7601 8.18182 10.508 8.46 10.5354 8.78182L10.6012 9.44182C12.6181 9.90545 14.3171 11.3291 14.3171 13.6364L14.328 18H15.2597C15.7201 18 16.0983 17.6455 16.1531 17.1982L16.9971 8.78182C17.03 8.46 16.7779 8.18182 16.4545 8.18182ZM12.6729 16.9091H5.54806C5.24663 16.9091 5 17.1545 5 17.4545C5 17.7545 5.24663 18 5.54806 18H12.6729C12.9743 18 13.221 17.7545 13.221 17.4545C13.221 17.1545 12.9743 16.9091 12.6729 16.9091ZM5.60287 13.6364H12.6181C12.9579 13.6364 13.2264 13.3309 13.1607 13.0036C12.8044 11.2418 10.9575 10.3582 9.11048 10.3582C7.2635 10.3582 5.42201 11.2418 5.06029 13.0036C4.99452 13.3309 5.26855 13.6364 5.60287 13.6364ZM12.6729 14.7273H5.54806C5.24663 14.7273 5 14.9727 5 15.2727C5 15.5727 5.24663 15.8182 5.54806 15.8182H12.6729C12.9743 15.8182 13.221 15.5727 13.221 15.2727C13.221 14.9727 12.9743 14.7273 12.6729 14.7273Z" fill="white"/>
</svg>
