<svg width="24" height="24" viewBox="0 0 24 24" fill="none" xmlns="http://www.w3.org/2000/svg">
<circle cx="12" cy="12" r="12" fill="#95C8E3"/>
<path d="M17.3419 10.3964L16.4414 7.68C16.1051 6.67636 15.1721 6 14.1305 6H10.6805C9.62807 6 8.69503 6.67636 8.36955 7.68L7.77284 9.45818L6.68791 8.36727L6.85065 8.20364C7.16528 7.88727 7.16528 7.36364 6.85065 7.04727C6.53602 6.73091 6.01526 6.73091 5.70063 7.04727L4.23597 8.53091C3.92134 8.84727 3.92134 9.37091 4.23597 9.68727C4.5506 10.0036 5.07137 10.0036 5.386 9.68727L5.53789 9.53455L6.61197 10.6145C5.55959 11.0727 4.81098 12.1309 4.81098 13.3636C4.81098 14.4327 5.3643 15.36 6.19969 15.8945C6.37328 17.0836 7.38227 18 8.60824 18C9.67147 18 10.5611 17.3127 10.8974 16.3636H13.9135C14.2499 17.3127 15.1504 18 16.2027 18C17.4287 18 18.4377 17.0836 18.6113 15.8945C19.4467 15.36 20 14.4327 20 13.3636C20 11.8255 18.8283 10.56 17.3419 10.3964ZM8.60824 16.3636C8.16342 16.3636 7.79454 15.9927 7.79454 15.5455C7.79454 15.0982 8.16342 14.7273 8.60824 14.7273C9.05306 14.7273 9.42194 15.0982 9.42194 15.5455C9.42194 15.9927 9.05306 16.3636 8.60824 16.3636ZM11.5918 10.3636H9.1941L9.91015 8.19273C10.0295 7.86545 10.3333 7.63636 10.6805 7.63636H11.5918V10.3636ZM13.2192 10.3636V7.63636H14.1305C14.4777 7.63636 14.7923 7.86545 14.9008 8.19273L15.6169 10.3636H13.2192ZM16.2027 16.3636C15.7579 16.3636 15.389 15.9927 15.389 15.5455C15.389 15.0982 15.7579 14.7273 16.2027 14.7273C16.6476 14.7273 17.0164 15.0982 17.0164 15.5455C17.0164 15.9927 16.6476 16.3636 16.2027 16.3636Z" fill="white"/>
</svg>
