<svg width="24" height="24" viewBox="0 0 24 24" fill="none" xmlns="http://www.w3.org/2000/svg">
<circle cx="12" cy="12" r="12" fill="#ADB7CA"/>
<path d="M10.6875 16.7184V15.4286H6.3125C5.95156 15.4286 5.64258 15.3027 5.38555 15.0509C5.12852 14.7991 5 14.4964 5 14.1429V7.28571C5 6.93214 5.12852 6.62946 5.38555 6.37768C5.64258 6.12589 5.95156 6 6.3125 6H17.6875C18.0484 6 18.3574 6.12589 18.6145 6.37768C18.8715 6.62946 19 6.93214 19 7.28571V14.1429C19 14.4964 18.8715 14.7991 18.6145 15.0509C18.3574 15.3027 18.0484 15.4286 17.6875 15.4286H13.3125V16.7143H13.9688C14.1547 16.7143 14.3105 16.7755 14.4363 16.898C14.5621 17.0205 14.625 17.1723 14.625 17.3534C14.625 17.5345 14.5622 17.6875 14.4365 17.8125C14.3109 17.9375 14.1552 18 13.9695 18H10.0364C9.85066 18 9.69401 17.9388 9.56641 17.8163C9.4388 17.6938 9.375 17.542 9.375 17.3609C9.375 17.1798 9.43789 17.0275 9.56367 16.9039C9.68945 16.7802 9.84531 16.7184 10.0312 16.7184H10.6875Z" fill="white"/>
</svg>
