<svg width="24" height="24" viewBox="0 0 24 24" fill="none" xmlns="http://www.w3.org/2000/svg">
<circle cx="12" cy="12" r="12" fill="#D9D9D9"/>
<path d="M5.875 16C5.63194 16 5.42535 15.9103 5.25521 15.7308C5.08507 15.5513 5 15.3333 5 15.0769C5 14.8205 5.08507 14.6026 5.25521 14.4231C5.42535 14.2436 5.63194 14.1538 5.875 14.1538H15.0625C15.1889 14.1538 15.2934 14.1972 15.376 14.284C15.4587 14.3707 15.5 14.4804 15.5 14.6131V15.5317C15.5 15.6644 15.4587 15.7756 15.376 15.8654C15.2934 15.9551 15.1889 16 15.0625 16H5.875ZM16.8125 16C16.6861 16 16.5816 15.9566 16.499 15.8698C16.4163 15.7831 16.375 15.6735 16.375 15.5408V14.6221C16.375 14.4894 16.4163 14.3782 16.499 14.2885C16.5816 14.1987 16.6861 14.1538 16.8125 14.1538C16.9389 14.1538 17.0434 14.1972 17.126 14.284C17.2087 14.3707 17.25 14.4804 17.25 14.6131V15.5317C17.25 15.6644 17.2087 15.7756 17.126 15.8654C17.0434 15.9551 16.9389 16 16.8125 16ZM18.5625 16C18.4361 16 18.3316 15.9566 18.249 15.8698C18.1663 15.7831 18.125 15.6735 18.125 15.5408V14.6221C18.125 14.4894 18.1663 14.3782 18.249 14.2885C18.3316 14.1987 18.4361 14.1538 18.5625 14.1538C18.6889 14.1538 18.7934 14.1972 18.876 14.284C18.9587 14.3707 19 14.4804 19 14.6131V15.5317C19 15.6644 18.9587 15.7756 18.876 15.8654C18.7934 15.9551 18.6889 16 18.5625 16ZM16.8125 13.2308C16.6861 13.2308 16.5816 13.1872 16.499 13.1C16.4163 13.0128 16.375 12.9026 16.375 12.7692V11.8462C16.375 11.4615 16.246 11.1346 15.988 10.8654C15.73 10.5962 15.4215 10.4615 15.0625 10.4615H14.1875C13.578 10.4615 13.0611 10.2379 12.6367 9.79058C12.2122 9.34314 12 8.79827 12 8.15596C12 7.51353 12.2122 6.96795 12.6367 6.51923C13.0611 6.07051 13.578 5.84615 14.1875 5.84615C14.3139 5.84615 14.4184 5.88974 14.501 5.97692C14.5837 6.0641 14.625 6.17436 14.625 6.30769C14.625 6.44103 14.5837 6.55128 14.501 6.63846C14.4184 6.72564 14.3139 6.76923 14.1875 6.76923C13.8229 6.76923 13.513 6.90385 13.2578 7.17308C13.0026 7.44231 12.875 7.76923 12.875 8.15385C12.875 8.53846 13.0026 8.86538 13.2578 9.13462C13.513 9.40385 13.8229 9.53846 14.1875 9.53846H15.0625C15.6701 9.53846 16.1866 9.76282 16.612 10.2115C17.0373 10.6603 17.25 11.2051 17.25 11.8462V12.7692C17.25 12.9026 17.2087 13.0128 17.126 13.1C17.0434 13.1872 16.9389 13.2308 16.8125 13.2308ZM18.5625 13.2308C18.4361 13.2308 18.3316 13.1872 18.249 13.1C18.1663 13.0128 18.125 12.9026 18.125 12.7692V11.8077C18.125 10.9231 17.8242 10.1699 17.2227 9.54808C16.6211 8.92628 15.901 8.61538 15.0625 8.61538C14.9361 8.61538 14.8316 8.57179 14.749 8.48462C14.6663 8.39744 14.625 8.28718 14.625 8.15385C14.625 8.02051 14.6663 7.91026 14.749 7.82308C14.8316 7.7359 14.9361 7.69231 15.0625 7.69231C15.4271 7.69231 15.7339 7.55397 15.9831 7.27731C16.2322 7.00077 16.3568 6.67385 16.3568 6.29654C16.3568 5.91936 16.2285 5.59615 15.972 5.32692C15.7154 5.05769 15.4123 4.92308 15.0625 4.92308C14.9361 4.92308 14.8316 4.87949 14.749 4.79231C14.6663 4.70513 14.625 4.59487 14.625 4.46154C14.625 4.32821 14.6663 4.21795 14.749 4.13077C14.8316 4.04359 14.9361 4 15.0625 4C15.6669 4 16.1795 4.22237 16.6005 4.66712C17.0213 5.11199 17.2318 5.65372 17.2318 6.29231C17.2318 6.62308 17.174 6.9359 17.0586 7.23077C16.9431 7.52564 16.77 7.78205 16.5391 8C17.2804 8.32051 17.8759 8.82494 18.3255 9.51327C18.7752 10.2016 19 10.9664 19 11.8077V12.7692C19 12.9026 18.9587 13.0128 18.876 13.1C18.7934 13.1872 18.6889 13.2308 18.5625 13.2308Z" fill="white"/>
</svg>
