<svg width="24" height="24" viewBox="0 0 24 24" fill="none" xmlns="http://www.w3.org/2000/svg">
<circle cx="12" cy="12" r="12" fill="#CCDD80"/>
<path d="M11.0909 14V15C11.0909 15.2778 11.1793 15.5139 11.3561 15.7083C11.5328 15.9028 11.7475 16 12 16C12.2525 16 12.4672 15.9028 12.6439 15.7083C12.8207 15.5139 12.9091 15.2778 12.9091 15V14H13.8182C14.0707 14 14.2854 13.9028 14.4621 13.7083C14.6389 13.5139 14.7273 13.2778 14.7273 13C14.7273 12.7222 14.6389 12.4861 14.4621 12.2917C14.2854 12.0972 14.0707 12 13.8182 12H12.9091V11C12.9091 10.7222 12.8207 10.4861 12.6439 10.2917C12.4672 10.0972 12.2525 10 12 10C11.7475 10 11.5328 10.0972 11.3561 10.2917C11.1793 10.4861 11.0909 10.7222 11.0909 11V12H10.1818C9.92929 12 9.71465 12.0972 9.53788 12.2917C9.36111 12.4861 9.27273 12.7222 9.27273 13C9.27273 13.2778 9.36111 13.5139 9.53788 13.7083C9.71465 13.9028 9.92929 14 10.1818 14H11.0909ZM8.36364 19C7.98864 19 7.66761 18.8531 7.40057 18.5594C7.13352 18.2656 7 17.9125 7 17.5V9C7 8.5875 7.13352 8.23438 7.40057 7.94063C7.66761 7.64688 7.98864 7.5 8.36364 7.5H15.6364C16.0114 7.5 16.3324 7.64688 16.5994 7.94063C16.8665 8.23438 17 8.5875 17 9V17.5C17 17.9125 16.8665 18.2656 16.5994 18.5594C16.3324 18.8531 16.0114 19 15.6364 19H8.36364ZM8.5964 6.5C8.40335 6.5 8.24053 6.42854 8.10795 6.28563C7.97538 6.14271 7.90909 5.96563 7.90909 5.75438C7.90909 5.54313 7.97437 5.36458 8.10492 5.21875C8.23548 5.07292 8.39729 5 8.59034 5H15.4036C15.5967 5 15.7595 5.07146 15.892 5.21437C16.0246 5.35729 16.0909 5.53437 16.0909 5.74562C16.0909 5.95687 16.0256 6.13542 15.8951 6.28125C15.7645 6.42708 15.6027 6.5 15.4097 6.5H8.5964Z" fill="white"/>
</svg>
