<svg width="24" height="24" viewBox="0 0 24 24" fill="none" xmlns="http://www.w3.org/2000/svg">
<circle cx="12" cy="12" r="12" fill="#DD8080"/>
<path d="M16.5 7.8H15C15 6.253 13.6575 5 12 5C10.3425 5 9 6.253 9 7.8H7.5C6.675 7.8 6 8.43 6 9.2V17.6C6 18.37 6.675 19 7.5 19H16.5C17.325 19 18 18.37 18 17.6V9.2C18 8.43 17.325 7.8 16.5 7.8ZM10.5 10.6C10.5 10.985 10.1625 11.3 9.75 11.3C9.3375 11.3 9 10.985 9 10.6V9.2H10.5V10.6ZM12 6.4C12.825 6.4 13.5 7.03 13.5 7.8H10.5C10.5 7.03 11.175 6.4 12 6.4ZM15 10.6C15 10.985 14.6625 11.3 14.25 11.3C13.8375 11.3 13.5 10.985 13.5 10.6V9.2H15V10.6Z" fill="white"/>
</svg>
