<svg width="25" height="25" viewBox="0 0 25 25" fill="none" xmlns="http://www.w3.org/2000/svg">
<path d="M6.87996 13.2652L14.2393 5.90594C14.8018 5.34345 15.209 4.93678 15.5595 4.65787C15.906 4.38218 16.173 4.25156 16.4493 4.21698C16.5936 4.19891 16.7397 4.19891 16.884 4.21698C17.1603 4.25156 17.4273 4.38218 17.7738 4.65787C18.1243 4.93678 18.5315 5.34345 19.094 5.90594C19.6565 6.46844 20.0632 6.87564 20.3421 7.22618C20.6178 7.57268 20.7484 7.83971 20.783 8.11594C20.8011 8.26031 20.8011 8.40636 20.783 8.55072C20.7484 8.82695 20.6178 9.09399 20.3421 9.44049C20.0632 9.79103 19.6565 10.1982 19.094 10.7607L11.7347 18.12C11.499 18.3557 11.4172 18.4336 11.321 18.4832C11.2248 18.5327 11.1138 18.554 10.785 18.6088L5.85769 19.43C5.69232 19.4576 5.59584 19.473 5.52847 19.4743C5.52751 19.4743 5.52657 19.4743 5.52565 19.4743C5.52567 19.4734 5.52568 19.4725 5.5257 19.4715C5.527 19.4041 5.54243 19.3077 5.56999 19.1423L6.39121 14.215C6.44601 13.8862 6.46729 13.7752 6.51681 13.679C6.56634 13.5827 6.64426 13.5009 6.87996 13.2652ZM5.48806 19.4721C5.48808 19.4721 5.48836 19.4721 5.48889 19.4723L5.48806 19.4721ZM5.52766 19.5109C5.52785 19.5116 5.52792 19.5119 5.52791 19.5119L5.52766 19.5109Z" fill="#E1E1E1" stroke="#FAFAFA" stroke-width="0.5"/>
<path d="M5.87809 19.4266L5.85768 19.43C5.69231 19.4576 5.59584 19.473 5.52847 19.4743C5.52751 19.4743 5.52657 19.4743 5.52565 19.4743C5.52567 19.4734 5.52568 19.4725 5.5257 19.4715C5.527 19.4041 5.54243 19.3077 5.56999 19.1423L6.39121 14.215C6.44601 13.8862 6.46729 13.7752 6.51681 13.679C6.56634 13.5827 6.64426 13.5009 6.87996 13.2652L13.0113 7.13388C13.183 6.96222 13.2943 6.85163 13.3871 6.78086C13.4741 6.7145 13.5147 6.70711 13.5416 6.70711C13.5686 6.70711 13.6092 6.7145 13.6962 6.78086C13.789 6.85163 13.9003 6.96222 14.072 7.13388L17.8661 10.928C18.0378 11.0997 18.1483 11.211 18.2191 11.3038C18.2855 11.3907 18.2929 11.4314 18.2929 11.4583C18.2929 11.4852 18.2855 11.5259 18.2191 11.6129C18.1483 11.7057 18.0378 11.817 17.8661 11.9887L11.7347 18.12C11.499 18.3557 11.4172 18.4336 11.321 18.4832C11.2248 18.5327 11.1138 18.554 10.785 18.6088L5.8781 19.4266H5.87809ZM5.48806 19.4721C5.48808 19.4721 5.48843 19.4721 5.48905 19.4723L5.48806 19.4721ZM5.52766 19.5109C5.52785 19.5116 5.52792 19.5119 5.52791 19.5119L5.52766 19.5109Z" fill="#E1E1E1" stroke="#FAFAFA" stroke-width="0.5"/>
</svg>
