<svg width="30" height="31" viewBox="0 0 30 31" fill="none" xmlns="http://www.w3.org/2000/svg">
<path fill-rule="evenodd" clip-rule="evenodd" d="M15 26.5781C21.2132 26.5781 26.25 21.5413 26.25 15.3281C26.25 9.11492 21.2132 4.07812 15 4.07812C8.7868 4.07812 3.75 9.11492 3.75 15.3281C3.75 21.5413 8.7868 26.5781 15 26.5781ZM21.1523 12.5384C21.6827 11.902 21.5967 10.9561 20.9603 10.4258C20.3239 9.89545 19.378 9.98143 18.8477 10.6178L13.9997 16.4354C13.8613 16.6015 13.7485 16.7367 13.649 16.8521C13.5395 16.7462 13.4149 16.6218 13.262 16.4689L11.0607 14.2675C10.4749 13.6817 9.52513 13.6817 8.93934 14.2675C8.35355 14.8533 8.35355 15.803 8.93934 16.3888L11.1407 18.5902L11.1927 18.6421C11.5085 18.9582 11.8455 19.2954 12.1664 19.5381C12.5394 19.8201 13.0821 20.1265 13.7961 20.0941C14.5101 20.0618 15.0228 19.7075 15.3688 19.3928C15.6664 19.1221 15.9714 18.7558 16.2574 18.4124L16.3044 18.3559L21.1523 12.5384Z" fill="#FFA000"/>
</svg>
