<svg width="30" height="31" viewBox="0 0 30 31" fill="none" xmlns="http://www.w3.org/2000/svg">
<path fill-rule="evenodd" clip-rule="evenodd" d="M20.6402 10.8099C21.0645 11.1635 21.1218 11.7941 20.7682 12.2183L15.9203 18.0359C15.9079 18.0507 15.8956 18.0655 15.8833 18.0802C15.5877 18.4351 15.3034 18.7764 15.0323 19.023C14.7287 19.2991 14.3228 19.5698 13.7734 19.5947C13.224 19.6196 12.7953 19.3868 12.4679 19.1393C12.1757 18.9183 11.8616 18.6041 11.5351 18.2775C11.5215 18.2639 11.5079 18.2503 11.4943 18.2366L9.29289 16.0353C8.90237 15.6447 8.90237 15.0116 9.29289 14.621C9.68342 14.2305 10.3166 14.2305 10.7071 14.621L12.9085 16.8224C13.2915 17.2054 13.5064 17.4171 13.6742 17.544C13.6764 17.5457 13.6785 17.5473 13.6806 17.5488C13.6826 17.5471 13.6846 17.5453 13.6866 17.5435C13.8422 17.4019 14.0371 17.1716 14.3838 16.7555L19.2318 10.938C19.5853 10.5137 20.2159 10.4564 20.6402 10.8099Z" fill="#D9D9D9"/>
<path d="M20.7682 12.2183L21.1523 12.5384L21.1523 12.5384L20.7682 12.2183ZM20.6402 10.8099L20.3201 11.194L20.6402 10.8099ZM15.9203 18.0359L16.3044 18.356L16.3044 18.356L15.9203 18.0359ZM15.8833 18.0802L15.4991 17.7602L15.4991 17.7602L15.8833 18.0802ZM15.0323 19.023L14.6959 18.6531L14.6959 18.6531L15.0323 19.023ZM13.7734 19.5947L13.7508 19.0952L13.7508 19.0952L13.7734 19.5947ZM12.4679 19.1393L12.7695 18.7405L12.7695 18.7405L12.4679 19.1393ZM11.5351 18.2775L11.1815 18.631L11.1815 18.631L11.5351 18.2775ZM11.4943 18.2366L11.8478 17.8831L11.8478 17.8831L11.4943 18.2366ZM9.29289 16.0353L8.93934 16.3888L8.93934 16.3888L9.29289 16.0353ZM10.7071 14.621L10.3536 14.9746L10.3536 14.9746L10.7071 14.621ZM12.9085 16.8224L12.5549 17.176L12.5549 17.176L12.9085 16.8224ZM13.6742 17.544L13.9758 17.1452L13.9758 17.1452L13.6742 17.544ZM13.6806 17.5488L13.3813 17.9493L13.71 18.195L14.015 17.9206L13.6806 17.5488ZM13.6866 17.5435L14.023 17.9134L14.023 17.9133L13.6866 17.5435ZM14.3838 16.7555L13.9997 16.4354L13.9997 16.4354L14.3838 16.7555ZM19.2318 10.938L19.6159 11.2581L19.6159 11.2581L19.2318 10.938ZM21.1523 12.5384C21.6827 11.902 21.5967 10.9562 20.9603 10.4258L20.3201 11.194C20.5322 11.3708 20.5609 11.6861 20.3841 11.8982L21.1523 12.5384ZM16.3044 18.356L21.1523 12.5384L20.3841 11.8982L15.5362 17.7158L16.3044 18.356ZM16.2675 18.4003C16.2798 18.3855 16.2921 18.3707 16.3044 18.356L15.5362 17.7158C15.5238 17.7306 15.5114 17.7455 15.4991 17.7602L16.2675 18.4003ZM15.3688 19.3928C15.6708 19.1181 15.979 18.7466 16.2675 18.4003L15.4991 17.7602C15.1965 18.1235 14.9359 18.4348 14.6959 18.6531L15.3688 19.3928ZM13.7961 20.0942C14.5105 20.0618 15.0233 19.7071 15.3688 19.3928L14.6959 18.6531C14.4341 18.8912 14.1352 19.0778 13.7508 19.0952L13.7961 20.0942ZM12.1664 19.5381C12.5388 19.8198 13.0817 20.1266 13.7961 20.0942L13.7508 19.0952C13.3664 19.1126 13.0518 18.9539 12.7695 18.7405L12.1664 19.5381ZM11.1815 18.631C11.5002 18.9498 11.8407 19.2918 12.1664 19.5381L12.7695 18.7405C12.5107 18.5448 12.223 18.2584 11.8887 17.924L11.1815 18.631ZM11.1407 18.5902C11.1543 18.6038 11.1679 18.6174 11.1815 18.631L11.8887 17.924C11.8751 17.9104 11.8615 17.8968 11.8478 17.8831L11.1407 18.5902ZM8.93934 16.3888L11.1407 18.5902L11.8478 17.8831L9.64645 15.6817L8.93934 16.3888ZM8.93934 14.2675C8.35355 14.8533 8.35355 15.803 8.93934 16.3888L9.64645 15.6817C9.45118 15.4864 9.45118 15.1699 9.64645 14.9746L8.93934 14.2675ZM11.0607 14.2675C10.4749 13.6817 9.52513 13.6817 8.93934 14.2675L9.64645 14.9746C9.84171 14.7793 10.1583 14.7793 10.3536 14.9746L11.0607 14.2675ZM13.262 16.4689L11.0607 14.2675L10.3536 14.9746L12.5549 17.176L13.262 16.4689ZM13.9758 17.1452C13.8424 17.0443 13.6563 16.8632 13.262 16.4689L12.5549 17.176C12.9266 17.5476 13.1705 17.79 13.3726 17.9428L13.9758 17.1452ZM13.98 17.1484C13.9786 17.1474 13.9773 17.1463 13.9758 17.1452L13.3726 17.9428C13.3755 17.945 13.3784 17.9472 13.3813 17.9493L13.98 17.1484ZM13.3502 17.1736C13.3488 17.1748 13.3475 17.176 13.3462 17.1771L14.015 17.9206C14.0177 17.9182 14.0203 17.9158 14.023 17.9134L13.3502 17.1736ZM13.9997 16.4354C13.6427 16.8638 13.4739 17.061 13.3501 17.1736L14.023 17.9133C14.2105 17.7428 14.4315 17.4794 14.7679 17.0756L13.9997 16.4354ZM18.8477 10.6179L13.9997 16.4354L14.7679 17.0756L19.6159 11.2581L18.8477 10.6179ZM20.9603 10.4258C20.3239 9.89547 19.378 9.98146 18.8477 10.6179L19.6159 11.2581C19.7927 11.0459 20.108 11.0173 20.3201 11.194L20.9603 10.4258Z" fill="#D9D9D9"/>
</svg>
