<svg width="25" height="25" viewBox="0 0 25 25" fill="none" xmlns="http://www.w3.org/2000/svg">
<path d="M14.5833 8.33325V8.33325C14.5833 7.83712 14.5833 7.58906 14.5345 7.37207C14.403 6.78841 14.0172 6.29424 13.4828 6.02516C13.2842 5.92513 13.0435 5.86497 12.5622 5.74464L12.5 5.72909C11.9594 5.59393 11.689 5.52635 11.4689 5.40787C10.9755 5.14236 10.6161 4.68207 10.4782 4.13904C10.4167 3.89671 10.4167 3.61808 10.4167 3.0608V2.08325" stroke="#fafafa" stroke-width="2" stroke-linecap="round"/>
<path d="M3.125 14.5833C3.125 11.9178 3.125 10.5851 3.77077 9.66702C3.93702 9.43066 4.13096 9.21909 4.34762 9.03773C5.18921 8.33325 6.41086 8.33325 8.85417 8.33325H16.1458C18.5891 8.33325 19.8108 8.33325 20.6524 9.03773C20.869 9.21909 21.063 9.43066 21.2292 9.66702C21.875 10.5851 21.875 11.9178 21.875 14.5833C21.875 17.2487 21.875 18.5814 21.2292 19.4995C21.063 19.7358 20.869 19.9474 20.6524 20.1288C19.8108 20.8333 18.5891 20.8333 16.1458 20.8333H8.85417C6.41086 20.8333 5.18921 20.8333 4.34762 20.1288C4.13096 19.9474 3.93702 19.7358 3.77077 19.4995C3.125 18.5814 3.125 17.2487 3.125 14.5833Z" fill="#fafafa" stroke="#fafafa" stroke-width="2"/>
<rect x="13.5417" y="14.5833" width="2.08333" height="2.08333" rx="1" fill="#33363F"/>
<rect x="7.29166" y="11.4583" width="2.08333" height="6.25" rx="1" fill="#33363F"/>
<rect x="11.4583" y="13.5417" width="2.08333" height="6.25" rx="1" transform="rotate(90 11.4583 13.5417)" fill="#33363F"/>
<rect x="16.6667" y="12.5" width="2.08333" height="2.08333" rx="1" fill="#33363F"/>
</svg>
