<svg width="25" height="25" viewBox="0 0 25 25" fill="none" xmlns="http://www.w3.org/2000/svg">
<path d="M21.875 6.12982L21.875 8.15591C21.875 8.49135 21.875 8.65906 21.7978 8.78136C21.7581 8.84426 21.7048 8.8975 21.6419 8.93722C21.5196 9.01443 21.3519 9.01443 21.0165 9.01443L15.625 9.01443L15.625 21.0337L12.5 20.0321L9.375 21.0337L6.25 20.0321L3.125 21.0337L3.125 7.00482C3.125 5.1192 3.125 4.17639 3.71079 3.59061C4.29657 3.00482 5.23938 3.00482 7.125 3.00482L18.7305 3.00482L18.75 3.00482C18.8661 3.00482 18.9241 3.00482 18.9732 3.00643C20.553 3.05814 21.8217 4.32683 21.8734 5.90667C21.875 5.95573 21.875 6.01376 21.875 6.12982Z" fill="#fafafa"/>
<path d="M18.75 3.00482V3.00482C18.8661 3.00482 18.9241 3.00482 18.9732 3.00643C20.553 3.05814 21.8217 4.32683 21.8734 5.90667C21.875 5.95573 21.875 6.01376 21.875 6.12982L21.875 8.15591C21.875 8.49135 21.875 8.65906 21.7978 8.78136C21.7581 8.84426 21.7048 8.8975 21.6419 8.93722C21.5196 9.01443 21.3519 9.01443 21.0165 9.01443L15.625 9.01443M18.75 3.00482V3.00482C18.6339 3.00482 18.5759 3.00482 18.5268 3.00643C16.947 3.05815 15.6783 4.32683 15.6266 5.90667C15.625 5.95573 15.625 6.01376 15.625 6.12982L15.625 9.01443M18.75 3.00482L7.125 3.00482C5.23938 3.00482 4.29657 3.00482 3.71079 3.59061C3.125 4.17639 3.125 5.1192 3.125 7.00482L3.125 21.0337L6.25 20.0321L9.375 21.0337L12.5 20.0321L15.625 21.0337L15.625 9.01443" stroke="#fafafa" stroke-width="2"/>
<path d="M7.29167 7.01123L11.4583 7.01123" stroke="#33363F" stroke-width="2.5" stroke-linecap="round"/>
<path d="M8.33333 11.0176H7.29166" stroke="#33363F" stroke-width="2.5" stroke-linecap="round"/>
<path d="M7.29167 15.024L10.4167 15.024" stroke="#33363F" stroke-width="2.5" stroke-linecap="round"/>
</svg>
