<svg width="25" height="25" viewBox="0 0 25 25" fill="none" xmlns="http://www.w3.org/2000/svg">
<path d="M18.75 3.00485V3.00485C18.8661 3.00485 18.9241 3.00485 18.9732 3.00646C20.553 3.05818 21.8217 4.32686 21.8734 5.9067C21.875 5.95576 21.875 6.01379 21.875 6.12985L21.875 8.15594C21.875 8.49138 21.875 8.65909 21.7978 8.78139C21.7581 8.84429 21.7048 8.89754 21.6419 8.93725C21.5196 9.01446 21.3519 9.01446 21.0165 9.01446L15.625 9.01446M18.75 3.00485V3.00485C18.6339 3.00485 18.5759 3.00485 18.5268 3.00646C16.947 3.05818 15.6783 4.32686 15.6266 5.9067C15.625 5.95576 15.625 6.01379 15.625 6.12985L15.625 9.01446M18.75 3.00485L7.125 3.00485C5.23938 3.00485 4.29657 3.00485 3.71079 3.59064C3.125 4.17642 3.125 5.11923 3.125 7.00485L3.125 21.0337L6.25 20.0321L9.375 21.0337L12.5 20.0321L15.625 21.0337L15.625 9.01446" stroke="#33363F" stroke-width="2"/>
<path d="M7.29163 7.01123L11.4583 7.01123" stroke="#33363F" stroke-width="2" stroke-linecap="round"/>
<path d="M8.33337 11.0176H7.29171" stroke="#33363F" stroke-width="2" stroke-linecap="round"/>
<path d="M7.29163 15.0239L10.4166 15.0239" stroke="#33363F" stroke-width="2" stroke-linecap="round"/>
</svg>
