<svg width="30" height="30" viewBox="0 0 30 30" fill="none" xmlns="http://www.w3.org/2000/svg">
<circle cx="15" cy="15" r="15" fill="#FFD951"/>
<path d="M14.9074 14.3149C12.8056 13.7686 12.1296 13.2037 12.1296 12.3241C12.1296 11.3149 13.0648 10.6112 14.6296 10.6112C15.9444 10.6112 16.6019 11.1112 16.8426 11.9075C16.9537 12.2778 17.2593 12.5556 17.6481 12.5556H17.9259C18.537 12.5556 18.9722 11.9537 18.7593 11.3797C18.3704 10.2871 17.463 9.37968 16.0185 9.02782V8.38893C16.0185 7.62042 15.3981 7.00005 14.6296 7.00005C13.8611 7.00005 13.2407 7.62042 13.2407 8.38893V9.00005C11.4444 9.38893 10 10.5556 10 12.3426C10 14.4815 11.7685 15.5463 14.3519 16.1667C16.6667 16.7223 17.1296 17.5371 17.1296 18.3982C17.1296 19.0371 16.6759 20.0556 14.6296 20.0556C13.1019 20.0556 12.3148 19.5093 12.0093 18.7315C11.8704 18.3704 11.5556 18.1112 11.1759 18.1112H10.9167C10.2963 18.1112 9.86111 18.7408 10.0926 19.3149C10.6204 20.6019 11.8519 21.3612 13.2407 21.6575V22.2778C13.2407 23.0463 13.8611 23.6667 14.6296 23.6667C15.3981 23.6667 16.0185 23.0463 16.0185 22.2778V21.676C17.8241 21.3334 19.2593 20.2871 19.2593 18.3889C19.2593 15.7593 17.0093 14.8612 14.9074 14.3149Z" fill="#F5F5F5"/>
</svg>
