<svg width="30" height="30" viewBox="0 0 30 30" fill="none" xmlns="http://www.w3.org/2000/svg">
<circle cx="15" cy="15" r="15" fill="#FFD8D8"/>
<path d="M22.7778 11.6667L20.5556 9.44444C20.5556 9.04444 21.1111 8.35555 21.1111 7.77778C21.1111 7.16666 20.6111 6.66666 20 6.66666C17.5889 6.66666 16.2778 8.33333 16.2778 8.33333H11.6667C8.94446 8.33333 6.66669 10.5222 6.66669 13.3333C6.66669 15.2667 7.91113 19.9111 8.53335 22.1222C8.74446 22.8333 9.40002 23.3333 10.1445 23.3333H12.2222C13.1445 23.3333 13.8889 22.5889 13.8889 21.6667H15.5556C15.5556 22.5889 16.3 23.3333 17.2222 23.3333H19.2889C20.0334 23.3333 20.6889 22.8333 20.9 22.1111L21.9445 18.3333L23.5778 17.9667C24.0889 17.8556 24.4445 17.4 24.4445 16.8778V12.7778C24.4445 12.1667 23.9445 11.6667 23.3334 11.6667H22.7778ZM15.8334 12.7778H13.0556C12.6 12.7778 12.2222 12.4 12.2222 11.9444C12.2222 11.4889 12.6 11.1111 13.0556 11.1111H15.8334C16.2889 11.1111 16.6667 11.4889 16.6667 11.9444C16.6667 12.4 16.2889 12.7778 15.8334 12.7778ZM19.1667 14.4444C18.7111 14.4444 18.3334 14.0667 18.3334 13.6111C18.3334 13.1556 18.7111 12.7778 19.1667 12.7778C19.6222 12.7778 20 13.1556 20 13.6111C20 14.0667 19.6222 14.4444 19.1667 14.4444Z" fill="#F5F5F5"/>
</svg>
