<svg width="30" height="30" viewBox="0 0 30 30" fill="none" xmlns="http://www.w3.org/2000/svg">
<circle cx="15" cy="15" r="15" fill="#91CF9B"/>
<path d="M24.8148 11.4815V20.7407C24.8148 21.7593 23.9815 22.5926 22.963 22.5926H8.14816C7.6389 22.5926 7.22224 22.1759 7.22224 21.6667C7.22224 21.1574 7.6389 20.7407 8.14816 20.7407H22.963V11.4815C22.963 10.9722 23.3796 10.5556 23.8889 10.5556C24.3982 10.5556 24.8148 10.9722 24.8148 11.4815ZM7.22224 18.8889C5.6852 18.8889 4.44446 17.6481 4.44446 16.1111V10.5556C4.44446 9.01852 5.6852 7.77778 7.22224 7.77778H18.3333C19.8704 7.77778 21.1111 9.01852 21.1111 10.5556V17.037C21.1111 18.0556 20.2778 18.8889 19.2593 18.8889H7.22224ZM10 13.3333C10 14.8704 11.2408 16.1111 12.7778 16.1111C14.3148 16.1111 15.5556 14.8704 15.5556 13.3333C15.5556 11.7963 14.3148 10.5556 12.7778 10.5556C11.2408 10.5556 10 11.7963 10 13.3333Z" fill="#F5F5F5"/>
</svg>
