<svg width="30" height="30" viewBox="0 0 30 30" fill="none" xmlns="http://www.w3.org/2000/svg">
<circle cx="15" cy="15" r="15" fill="#F0D8FF"/>
<path d="M22.2727 13.1404V11.386C22.2727 10.4211 21.4545 9.63162 20.4545 9.63162H17.7273C17.7273 8.17548 16.5091 7.00005 15 7.00005C13.4909 7.00005 12.2727 8.17548 12.2727 9.63162H9.54545C8.54545 9.63162 7.72727 10.4211 7.72727 11.386V13.1404C6.21818 13.1404 5 14.3158 5 15.772C5 17.2281 6.21818 18.4036 7.72727 18.4036V21.9123C7.72727 22.8772 8.54545 23.6667 9.54545 23.6667H20.4545C21.4545 23.6667 22.2727 22.8772 22.2727 21.9123V18.4036C23.7818 18.4036 25 17.2281 25 15.772C25 14.3158 23.7818 13.1404 22.2727 13.1404ZM10.9091 15.3334C10.9091 14.6053 11.5182 14.0176 12.2727 14.0176C13.0273 14.0176 13.6364 14.6053 13.6364 15.3334C13.6364 16.0614 13.0273 16.6492 12.2727 16.6492C11.5182 16.6492 10.9091 16.0614 10.9091 15.3334ZM17.7273 20.1579H12.2727C11.7727 20.1579 11.3636 19.7632 11.3636 19.2807C11.3636 18.7983 11.7727 18.4036 12.2727 18.4036H17.7273C18.2273 18.4036 18.6364 18.7983 18.6364 19.2807C18.6364 19.7632 18.2273 20.1579 17.7273 20.1579ZM17.7273 16.6492C16.9727 16.6492 16.3636 16.0614 16.3636 15.3334C16.3636 14.6053 16.9727 14.0176 17.7273 14.0176C18.4818 14.0176 19.0909 14.6053 19.0909 15.3334C19.0909 16.0614 18.4818 16.6492 17.7273 16.6492Z" fill="#F5F5F5"/>
</svg>
