<svg width="15" height="15" viewBox="0 0 15 15" fill="none" xmlns="http://www.w3.org/2000/svg">
<path d="M9.375 6.25L11.875 8.75L14.375 6.25" stroke="#9E9E9E" stroke-opacity="0.933333" stroke-width="1.5"/>
<path d="M5.3125 3.71114C5.97758 3.32715 6.73203 3.125 7.5 3.125C8.26797 3.125 9.02242 3.32715 9.6875 3.71114C10.3526 4.09513 10.9049 4.64742 11.2889 5.3125C11.6728 5.97758 11.875 6.73203 11.875 7.5" stroke="#9E9E9E" stroke-opacity="0.933333" stroke-width="1.5" stroke-linecap="round"/>
<path d="M5.625 8.75L3.125 6.25L0.625001 8.75" stroke="#9E9E9E" stroke-opacity="0.933333" stroke-width="1.5"/>
<path d="M9.6875 11.2889C9.02242 11.6728 8.26797 11.875 7.5 11.875C6.73203 11.875 5.97758 11.6728 5.3125 11.2889C4.64742 10.9049 4.09513 10.3526 3.71114 9.6875C3.32715 9.02242 3.125 8.26797 3.125 7.5" stroke="#9E9E9E" stroke-opacity="0.933333" stroke-width="1.5" stroke-linecap="round"/>
</svg>
