<svg width="16" height="14" viewBox="0 0 16 14" fill="none" xmlns="http://www.w3.org/2000/svg">
<path d="M1.81926 1.69336H13.5091C13.9683 1.69336 14.344 1.32773 14.344 0.880859C14.344 0.433984 13.9683 0.0683594 13.5091 0.0683594H1.81926C1.36001 0.0683594 0.984269 0.433984 0.984269 0.880859C0.984269 1.32773 1.36001 1.69336 1.81926 1.69336ZM14.4776 3.15586C14.4025 2.78211 14.0602 2.50586 13.6594 2.50586H1.66896C1.26816 2.50586 0.92582 2.78211 0.850671 3.15586L0.0156848 7.21836C-0.0845135 7.72211 0.30793 8.19336 0.833971 8.19336H0.984269V12.2559C0.984269 12.7027 1.36001 13.0684 1.81926 13.0684H8.49914C8.95839 13.0684 9.33413 12.7027 9.33413 12.2559V8.19336H12.6741V12.2559C12.6741 12.7027 13.0498 13.0684 13.5091 13.0684C13.9683 13.0684 14.344 12.7027 14.344 12.2559V8.19336H14.4943C15.0204 8.19336 15.4128 7.72211 15.3126 7.21836L14.4776 3.15586ZM7.66416 11.4434H2.65424V8.19336H7.66416V11.4434Z" fill="#FFA000"/>
</svg>
