<svg width="25" height="25" viewBox="0 0 25 25" fill="none" xmlns="http://www.w3.org/2000/svg">
<path d="M20.8333 5.16667C21.3856 5.16667 21.8333 4.71895 21.8333 4.16667C21.8333 3.61438 21.3856 3.16667 20.8333 3.16667V5.16667ZM5.72918 5.16667L20.8333 5.16667V3.16667L5.72918 3.16667L5.72918 5.16667ZM5.72918 10.375H14.0625V8.375H5.72918V10.375ZM4.12502 6.77083C4.12502 5.88488 4.84323 5.16667 5.72918 5.16667L5.72918 3.16667C3.73866 3.16667 2.12502 4.78031 2.12502 6.77083L4.12502 6.77083ZM2.12502 6.77083C2.12502 8.76136 3.73866 10.375 5.72918 10.375V8.375C4.84323 8.375 4.12502 7.65679 4.12502 6.77083L2.12502 6.77083Z" fill="#222222"/>
<path d="M3.125 12.5L3.125 6.77083" stroke="#222222" stroke-width="2"/>
<path d="M3.125 8.875H2.625L3.06434 21.9357C3.31917 22.1905 3.63335 22.2899 3.96111 22.3339C4.26693 22.375 4.64884 22.375 5.09208 22.375L5.125 22.375L19.875 22.375C19.886 22.375 19.897 22.375 19.9079 22.375C20.3512 22.375 20.7331 22.375 21.0389 22.3339C21.3667 22.2899 21.6808 22.1905 21.9357 21.9357C22.1905 21.6808 22.2899 21.3667 22.3339 21.0389C22.375 20.7331 22.375 20.3512 22.375 19.9079C22.375 19.897 22.375 19.886 22.375 19.875V18.75V18.25H21.875H18.75C17.3003 18.25 16.125 17.0747 16.125 15.625C16.125 14.1753 17.3003 13 18.75 13H21.875H22.375V12.5V11.375L22.375 11.3421C22.375 10.8988 22.375 10.5169 22.3339 10.2111C22.2899 9.88335 22.1905 9.56917 21.9357 9.31434C21.6808 9.05951 21.3667 8.96014 21.0389 8.91607C20.7331 8.87495 20.3512 8.87497 19.9079 8.875L19.875 8.875L3.125 8.875Z" fill="#222222" stroke="#222222"/>
</svg>
