<svg width="25" height="25" viewBox="0 0 25 25" fill="none" xmlns="http://www.w3.org/2000/svg">
<path d="M3.12501 6.77083V6.77083C3.12501 5.33259 4.29093 4.16667 5.72918 4.16667L20.0893 4.16667C20.3167 4.16667 20.4304 4.16667 20.5203 4.20296C20.6463 4.25377 20.7462 4.35366 20.797 4.47965C20.8333 4.56964 20.8333 4.68333 20.8333 4.91071V4.91071C20.8333 6.27502 20.8333 6.95717 20.6156 7.49709C20.3107 8.25303 19.7114 8.85238 18.9554 9.15725C18.4155 9.375 17.7334 9.375 16.369 9.375L15.625 9.375M3.12501 6.77083V6.77083C3.12501 8.20908 4.29093 9.375 5.72917 9.375L19.875 9.375C20.8178 9.375 21.2892 9.375 21.5821 9.66789C21.875 9.96079 21.875 10.4322 21.875 11.375L21.875 13.5417M3.12501 6.77083L3.12501 17.875C3.12501 19.7606 3.12501 20.7034 3.7108 21.2892C4.29658 21.875 5.23939 21.875 7.12501 21.875L19.875 21.875C20.8178 21.875 21.2892 21.875 21.5821 21.5821C21.875 21.2892 21.875 20.8178 21.875 19.875L21.875 17.7083M21.875 17.7083H17.625C16.6822 17.7083 16.2108 17.7083 15.9179 17.4154C15.625 17.1225 15.625 16.6511 15.625 15.7083V15.5417C15.625 14.5989 15.625 14.1275 15.9179 13.8346C16.2108 13.5417 16.6822 13.5417 17.625 13.5417H21.875M21.875 17.7083L21.875 13.5417" stroke="#fafafa" stroke-width="2"/>
</svg>
